<svg xmlns="http://www.w3.org/2000/svg" version="1.0" width="512.000000pt" height="512.000000pt" viewBox="0 0 512.000000 512.000000" preserveAspectRatio="xMidYMid meet">

<g transform="translate(0.000000,512.000000) scale(0.100000,-0.100000)" fill="#f3fbff" stroke="none">
<path d="M3392 5108 c-50 -17 -118 -82 -137 -133 -27 -68 -17 -163 21 -217 34 -49 81 -83 133 -98 22 -6 266 -10 639 -10 l602 0 0 -2090 0 -2090 -602 0 c-373 0 -617 -4 -639 -10 -52 -15 -99 -49 -133 -98 -38 -54 -48 -149 -21 -217 21 -56 90 -118 147 -134 32 -9 243 -11 799 -9 l756 3 49 30 c30 19 60 49 79 79 l30 49 0 2397 0 2397 -30 49 c-19 30 -49 60 -79 79 l-49 30 -766 2 c-519 1 -777 -2 -799 -9z" fill="#f3fbff"/>
<path d="M1548 4176 c-21 -7 -48 -20 -61 -29 -13 -8 -343 -337 -733 -731 -755 -762 -754 -760 -754 -856 0 -96 -2 -94 759 -861 450 -454 729 -728 755 -742 57 -30 155 -30 213 1 107 56 153 190 103 300 -14 32 -158 184 -526 555 l-506 512 1464 5 1463 5 48 28 c144 85 144 309 0 394 l-48 28 -1463 5 -1463 5 513 520 c554 561 538 542 538 649 0 117 -91 212 -214 222 -30 3 -67 -1 -88 -10z" fill="#f3fbff"/>
</g>
</svg>